<svg width="35" height="35" viewBox="0 0 35 35" fill="none" xmlns="http://www.w3.org/2000/svg">
<path d="M7.2644 18.3077C7.2644 16.3596 7.2644 15.3855 7.66032 14.5293C8.05624 13.6731 8.79978 13.0392 10.2869 11.7714L11.7294 10.5415C14.4173 8.24992 15.7612 7.10413 17.3621 7.10413C18.9629 7.10413 20.3069 8.24992 22.9948 10.5415L24.4373 11.7714C25.9244 13.0392 26.6679 13.6731 27.0638 14.5293C27.4597 15.3855 27.4597 16.3596 27.4597 18.3077V24.3919C27.4597 27.0974 27.4597 28.4502 26.6147 29.2907C25.7697 30.1312 24.4097 30.1312 21.6896 30.1312H13.0345C10.3144 30.1312 8.95443 30.1312 8.10942 29.2907C7.2644 28.4502 7.2644 27.0974 7.2644 24.3919V18.3077Z" stroke="white" stroke-width="3"/>
<path d="M20.9684 30.1313V22.5223C20.9684 21.9701 20.5206 21.5223 19.9684 21.5223H14.7557C14.2035 21.5223 13.7557 21.9701 13.7557 22.5223V30.1313" stroke="white" stroke-width="3" stroke-linecap="round" stroke-linejoin="round"/>
</svg>
