<svg width="37" height="36" viewBox="0 0 37 36" fill="none" xmlns="http://www.w3.org/2000/svg">
<path d="M18.107 6L7.5708 10.5L18.107 15L28.6432 10.5L18.107 6Z" stroke="#C1F2BB" stroke-width="2" stroke-linejoin="round"/>
<path fill-rule="evenodd" clip-rule="evenodd" d="M12.532 14.7937L7.17803 17.0804C6.80973 17.2377 6.5708 17.5995 6.5708 18C6.5708 18.4005 6.80973 18.7623 7.17803 18.9196L17.7142 23.4196C17.9651 23.5268 18.2489 23.5268 18.4998 23.4196L29.036 18.9196C29.4043 18.7623 29.6432 18.4005 29.6432 18C29.6432 17.5995 29.4043 17.2377 29.036 17.0804L23.682 14.7937L21.136 15.8811L26.0972 18L18.107 21.4126L10.1168 18L15.078 15.8811L12.532 14.7937ZM17.624 12.6189L17.7142 12.5804C17.9651 12.4732 18.2489 12.4732 18.4998 12.5804L18.59 12.6189L18.107 12.8252L17.624 12.6189Z" fill="#C1F2BB"/>
<path fill-rule="evenodd" clip-rule="evenodd" d="M12.532 22.2937L7.17803 24.5804C6.80973 24.7377 6.5708 25.0995 6.5708 25.5C6.5708 25.9005 6.80973 26.2623 7.17803 26.4196L17.7142 30.9196C17.9651 31.0268 18.2489 31.0268 18.4998 30.9196L29.036 26.4196C29.4043 26.2623 29.6432 25.9005 29.6432 25.5C29.6432 25.0995 29.4043 24.7377 29.036 24.5804L23.682 22.2937L21.136 23.3811L26.0972 25.5L18.107 28.9126L10.1168 25.5L15.078 23.3811L12.532 22.2937ZM17.624 20.1189L17.7142 20.0804C17.9651 19.9732 18.2489 19.9732 18.4998 20.0804L18.59 20.1189L18.107 20.3252L17.624 20.1189Z" fill="#C1F2BB"/>
</svg>
